<?xml version="1.0" encoding="utf-8"?>
<!-- Generator: Adobe Illustrator 20.1.0, SVG Export Plug-In . SVG Version: 6.00 Build 0)  -->
<svg version="1.1" id="Layer_1" xmlns="http://www.w3.org/2000/svg" xmlns:xlink="http://www.w3.org/1999/xlink" x="0px" y="0px"
	 viewBox="0 0 688 120" style="enable-background:new 0 0 688 120;" xml:space="preserve">
<style type="text/css">
	.st0{fill:#241F21;}
</style>
<title>open-signal-logo</title>
<path class="st0" d="M157.1,37.9c-2.2-2.4-4.8-4.4-7.9-5.6c-3.1-1.3-6.5-1.9-9.8-1.9c-2.7-0.1-5.4,0.5-7.8,1.6
	c-2.3,1.1-4.4,2.6-6.4,4.3v-4.6h-22.1v80.6h22.1V84.7c2,1.6,4.3,2.8,6.8,3.6c2.4,0.7,4.9,1.1,7.4,1.1c3.4,0,6.8-0.7,9.8-2.1
	s5.7-3.4,7.9-5.9c2.3-2.7,4.1-5.9,5.2-9.2c1.3-3.9,2-8,1.9-12.1c0.1-4.4-0.6-8.7-1.9-12.8C161.3,43.8,159.5,40.6,157.1,37.9z
	 M140.8,68.2c-3.6,4-9.8,4.3-13.8,0.8c-0.3-0.2-0.5-0.5-0.8-0.8c-1.8-2.3-2.7-5.2-2.6-8.2c-0.1-3,0.8-5.9,2.6-8.2
	c3.5-4,9.6-4.4,13.6-0.9c0.3,0.3,0.6,0.6,0.9,0.9c1.8,2.4,2.7,5.3,2.6,8.2C143.5,62.9,142.6,65.8,140.8,68.2L140.8,68.2z"/>
<path class="st0" d="M220.4,39.4c-2.4-2.9-5.3-5.2-8.7-6.8c-3.9-1.8-8.2-2.7-12.5-2.6c-4.3-0.1-8.6,0.8-12.5,2.5
	c-3.5,1.5-6.6,3.7-9.1,6.5c-2.5,2.7-4.4,5.9-5.6,9.4c-1.3,3.6-1.9,7.3-1.9,11.1c0,4.2,0.7,8.3,2.2,12.2c2.8,7.4,8.6,13.2,16,16
	c4.2,1.6,8.7,2.4,13.1,2.3c5,0.1,9.9-0.7,14.6-2.3c3.4-1.3,6.7-2.9,9.8-4.7L219,69.1c-2.2,1.1-4.4,2-6.8,2.8
	c-2.9,0.8-5.9,1.2-8.9,1.1c-2.7,0-5.3-0.6-7.7-1.8c-2.2-1.2-4-3-5.1-5.3h36.6c0.1-0.9,0.1-1.9,0.2-2.9c0-1.1,0.1-2.1,0.1-2.9
	c0-3.7-0.6-7.3-1.7-10.9C224.4,45.4,222.7,42.2,220.4,39.4z M189.9,52.9c0.6-2.2,1.7-4.1,3.4-5.7c1.6-1.4,3.6-2.2,5.8-2.1
	c2.2-0.1,4.4,0.6,6.2,2c1.6,1.6,2.7,3.6,3.1,5.8H189.9L189.9,52.9z"/>
<path class="st0" d="M290.7,36.1c-1.8-1.8-4-3.2-6.4-4.2c-2.7-1.1-5.6-1.6-8.6-1.6c-4.4,0-8,0.7-10.7,2.2c-2.5,1.3-4.8,2.9-6.8,4.9
	v-5.6h-22.1V88h22.1V57.4c-0.1-2.3,0.7-4.6,2.2-6.4c1.5-1.7,3.7-2.7,6-2.6c2.6,0,4.5,0.7,5.8,2.1c1.4,1.6,2.1,3.7,2,5.8V88h22V49.8
	c0-2.6-0.5-5.1-1.4-7.5C293.8,40,292.5,37.9,290.7,36.1z"/>
<rect x="418.3" y="31.8" class="st0" width="22.1" height="56.2"/>
<path class="st0" d="M488.4,35.5c-1.8-1.4-3.6-2.6-5.6-3.5c-2.2-1.1-4.7-1.7-7.2-1.6c-3.9-0.1-7.8,0.7-11.3,2.2
	c-3.1,1.4-6,3.4-8.2,6c-2.3,2.6-4,5.7-5,9.1c-1.1,3.7-1.7,7.5-1.7,11.3s0.5,7.5,1.6,11.2c1,3.3,2.6,6.4,4.7,9.1
	c2.1,2.6,4.8,4.7,7.8,6.1c3.4,1.5,7.1,2.3,10.8,2.2c3,0.1,5.9-0.5,8.6-1.6c2.2-1,4.3-2.2,6.1-3.8V85c0.1,3.4-1.5,6.6-4.3,8.5
	c-3.2,2.1-6.9,3.1-10.7,3c-3,0.1-6-0.4-8.8-1.4c-2.1-0.8-4.1-1.8-6.1-2.9l-8,14.9c3.6,2.1,7.4,3.7,11.3,4.9c5,1.5,10.2,2.2,15.4,2.1
	c4.5,0,8.9-0.7,13.1-2.2c3.8-1.3,7.4-3.5,10.4-6.2c3-2.8,5.3-6.2,6.8-9.9c1.7-4.2,2.5-8.6,2.5-13.1V31.8h-22.2L488.4,35.5
	L488.4,35.5z M487.3,66.4c-4.1,3.8-10.4,3.8-14.5,0c-1.8-2.1-2.7-4.7-2.6-7.4c-0.1-2.7,0.8-5.4,2.6-7.5c4-3.9,10.5-3.9,14.5,0
	c1.8,2.1,2.7,4.8,2.6,7.5C490,61.6,489.1,64.3,487.3,66.4L487.3,66.4z"/>
<path class="st0" d="M577.3,36.1c-1.8-1.8-4-3.2-6.4-4.2c-2.7-1.1-5.6-1.6-8.6-1.6c-4.4,0-8,0.7-10.7,2.2c-2.5,1.3-4.8,2.9-6.8,4.9
	v-5.6h-22.1V88h22.1V57.4c-0.1-2.3,0.7-4.6,2.2-6.4c1.5-1.7,3.7-2.7,6-2.6c2.6,0,4.5,0.7,5.8,2.1c1.4,1.6,2,3.7,1.9,5.8V88h22.1
	V49.8c0-2.6-0.5-5.1-1.4-7.5C580.4,40,579.1,37.9,577.3,36.1z"/>
<path class="st0" d="M630.7,35.3c-2-1.6-4.4-2.9-6.8-3.7c-2.4-0.7-4.9-1.1-7.4-1.1c-6.8-0.1-13.3,2.9-17.8,8
	c-2.3,2.7-4.1,5.9-5.2,9.3c-1.3,3.9-1.9,8-1.9,12.1c-0.1,4.4,0.5,8.7,1.9,12.8c1.1,3.4,2.9,6.6,5.2,9.2c2.2,2.4,4.9,4.3,7.9,5.6
	c3.1,1.3,6.5,1.9,9.8,1.9c2.7,0.1,5.4-0.4,7.9-1.4c2.4-1,4.5-2.4,6.4-4.1V88h22.1V31.8h-22.1L630.7,35.3L630.7,35.3z M629.5,68.1
	c-3.5,4-9.6,4.4-13.6,0.9c-0.3-0.3-0.6-0.6-0.9-0.9c-1.8-2.4-2.7-5.3-2.6-8.2c-0.1-2.9,0.8-5.8,2.6-8.2c3.6-4,9.8-4.3,13.8-0.8
	c0.3,0.2,0.5,0.5,0.8,0.8c1.8,2.3,2.7,5.2,2.6,8.2C632.2,62.8,631.3,65.7,629.5,68.1L629.5,68.1z"/>
<rect x="666" y="1.6" class="st0" width="22.1" height="86.4"/>
<path class="st0" d="M371.8,41c-11.5,0-13.6-5.6-13.8-9.2h-21.9c0.1,12.5,9.8,31.2,35.8,31.2c12.4,0,14.7,7.1,15.1,10.3h22
	C408.9,61.6,399.3,41,371.8,41z"/>
<rect x="71" y="41.8" class="st0" width="23.1" height="22.1"/>
<rect y="41.8" class="st0" width="23.1" height="22.1"/>
<rect x="36" y="4.6" class="st0" width="22.1" height="23.1"/>
<rect x="36" y="78.4" class="st0" width="22.1" height="23.1"/>
<circle class="st0" cx="18.3" cy="24.3" r="12.1"/>
<circle class="st0" cx="75.8" cy="24.3" r="12.1"/>
<circle class="st0" cx="18.3" cy="80.3" r="12.1"/>
<circle class="st0" cx="75.8" cy="80.3" r="12.1"/>
<circle class="st0" cx="429.4" cy="13.6" r="12.1"/>
<circle class="st0" cx="393.3" cy="24" r="12.1"/>
<circle class="st0" cx="352" cy="79.9" r="12.1"/>
<rect x="347.5" y="4.4" transform="matrix(0.7071 -0.7071 0.7071 0.7071 94.3174 257.5779)" class="st0" width="21.1" height="21.1"/>
<rect x="376.4" y="79.9" transform="matrix(0.7071 -0.7071 0.7071 0.7071 49.3807 300.1198)" class="st0" width="21.1" height="21.1"/>
</svg>
