<?xml version="1.0" standalone="no"?>
<!DOCTYPE svg PUBLIC "-//W3C//DTD SVG 20010904//EN"
 "http://www.w3.org/TR/2001/REC-SVG-20010904/DTD/svg10.dtd">
<svg version="1.0" xmlns="http://www.w3.org/2000/svg"
 width="262.000000pt" height="262.000000pt" viewBox="0 0 262.000000 262.000000"
 preserveAspectRatio="xMidYMid meet">
<metadata>
Created by potrace 1.11, written by Peter Selinger 2001-2013
</metadata>
<g transform="translate(0.000000,262.000000) scale(0.100000,-0.100000)"
fill="#000000" stroke="none">
<path d="M2215 2130 c-3 -5 -12 -7 -20 -3 -8 3 -23 2 -32 -2 -10 -4 -25 -9
-33 -11 -52 -10 -100 -31 -100 -44 0 -6 -4 -9 -9 -6 -5 3 -23 -7 -40 -23 -16
-15 -33 -26 -36 -23 -3 3 -5 -1 -5 -9 0 -8 -9 -21 -19 -29 -11 -7 -18 -17 -15
-22 3 -4 0 -8 -5 -8 -6 0 -11 -9 -11 -20 0 -11 -5 -20 -11 -20 -7 0 -9 -9 -6
-21 3 -12 0 -22 -8 -25 -17 -7 -10 -45 10 -56 8 -5 15 -16 15 -23 0 -8 6 -15
14 -15 7 0 30 -18 49 -39 19 -22 39 -36 43 -33 4 4 4 -1 1 -11 -4 -11 -3 -16
3 -12 6 4 39 -23 75 -59 35 -36 70 -66 76 -66 7 0 10 -3 6 -6 -8 -9 56 -72 67
-66 5 3 6 1 3 -5 -5 -8 25 -43 38 -43 11 0 52 -50 46 -57 -3 -4 3 0 15 10 11
9 24 14 27 11 4 -4 9 1 13 10 5 14 9 14 22 4 9 -8 13 -8 9 -2 -4 7 5 16 22 23
34 15 113 86 104 95 -4 3 -2 6 4 6 13 0 50 69 47 88 -1 6 -2 18 -3 25 -1 7 -8
4 -17 -8 -8 -11 -18 -20 -22 -21 -4 0 -20 -7 -37 -14 -16 -7 -33 -13 -37 -12
-5 1 -8 -3 -8 -9 0 -6 -7 -9 -15 -5 -8 3 -15 1 -15 -3 0 -5 -8 -8 -17 -6 -10
1 -24 -2 -31 -8 -10 -8 -16 -7 -23 4 -5 8 -9 9 -9 4 0 -6 -13 -11 -30 -11 -16
-1 -28 2 -25 6 2 4 -7 6 -20 4 -14 -1 -25 3 -25 9 0 8 -3 8 -8 -1 -7 -9 -13
-8 -27 8 -10 11 -20 18 -24 16 -3 -1 -14 5 -23 16 -10 10 -15 18 -11 18 4 0
-4 10 -16 21 -18 17 -20 23 -9 30 11 7 11 9 -1 9 -18 0 -6 13 14 16 9 1 12 -3
9 -9 -5 -9 -3 -8 6 0 9 8 19 9 31 3 11 -7 20 -7 24 0 4 6 15 6 31 0 17 -7 23
-7 19 0 -7 12 36 7 56 -6 8 -4 9 -3 5 4 -8 13 6 17 18 5 8 -9 46 -12 41 -3 -2
4 9 7 25 7 16 0 27 -5 23 -10 -3 -5 4 -4 15 2 24 13 35 14 28 3 -2 -4 4 -8 14
-8 10 0 17 3 14 7 -2 3 12 6 30 5 19 0 32 -4 29 -8 -2 -5 1 -8 6 -8 6 0 11 5
11 11 0 6 7 9 15 5 8 -3 15 -1 15 5 0 6 4 8 9 5 4 -3 6 6 3 19 -2 15 -9 22
-16 18 -6 -3 -6 0 2 8 6 7 12 17 12 22 0 4 -6 5 -12 1 -10 -5 -10 -4 -1 6 10
11 10 17 0 29 -9 12 -9 13 1 7 6 -4 12 -3 12 1 0 5 -6 15 -12 22 -11 11 -10
12 2 6 10 -6 8 -1 -4 13 -14 17 -16 22 -5 22 11 0 12 2 1 9 -8 4 -13 11 -13
15 3 19 0 27 -8 21 -6 -3 -8 3 -6 14 2 11 -3 22 -11 25 -9 3 -13 10 -9 15 3 5
-4 12 -15 16 -11 4 -18 11 -15 16 4 5 -1 9 -10 9 -9 0 -14 4 -11 9 3 5 -26 25
-64 45 -42 21 -70 30 -70 23 0 -8 -3 -7 -9 2 -5 8 -29 16 -57 17 -26 2 -53 5
-60 8 -7 3 -16 1 -19 -4z m62 -169 c11 -5 23 -7 27 -4 9 9 45 -32 61 -70 22
-54 11 -60 -112 -59 -166 0 -152 -3 -146 35 3 17 10 35 16 39 7 4 8 8 3 8 -5
0 3 11 18 25 25 23 39 29 59 26 4 0 7 3 7 8 0 11 42 6 67 -8z"/>
<path d="M880 1839 c0 -5 -7 -6 -15 -3 -8 4 -15 1 -15 -6 0 -6 -4 -9 -8 -6
-10 6 -168 -145 -165 -156 2 -4 -6 -10 -17 -13 -11 -4 -20 -13 -20 -21 0 -8
-3 -13 -7 -12 -5 2 -64 -52 -132 -120 -68 -67 -127 -122 -132 -122 -5 0 -8 -4
-7 -8 4 -10 -48 -62 -60 -62 -5 0 -12 -9 -15 -21 -3 -12 -10 -18 -15 -15 -5 3
-14 -6 -21 -20 -6 -14 -15 -23 -19 -20 -4 2 -18 -11 -31 -30 -13 -18 -27 -31
-32 -28 -5 3 -8 1 -7 -4 2 -6 0 -9 -4 -9 -4 1 -18 -13 -31 -30 -13 -18 -27
-30 -30 -26 -4 3 -7 1 -7 -5 0 -15 -44 -62 -59 -62 -6 0 -11 -5 -11 -11 0 -5
5 -7 11 -3 6 3 3 -6 -7 -22 -10 -16 -14 -26 -9 -22 4 4 13 0 20 -9 7 -9 21
-18 31 -20 33 -6 99 -15 109 -14 77 6 105 6 105 -1 0 -5 5 -6 12 -2 16 10 78
12 78 2 0 -4 11 -3 25 2 17 6 25 6 25 -1 0 -6 5 -7 12 -3 16 10 119 11 124 2
3 -4 18 1 35 11 35 22 67 61 48 61 -8 0 -8 4 1 15 9 11 10 18 1 28 -6 8 -8 16
-6 19 11 11 14 48 4 53 -5 4 -6 12 -2 18 13 20 13 47 2 47 -8 0 -8 4 0 14 13
16 11 37 -4 48 -6 5 -6 8 2 8 13 0 12 47 -1 69 -6 9 -5 12 2 7 7 -4 11 2 10
16 -2 60 2 78 20 78 10 0 23 5 30 12 9 9 12 9 12 -1 0 -7 6 -11 13 -8 7 3 24
-4 38 -15 13 -11 17 -17 9 -13 -8 4 -6 -1 5 -9 62 -50 123 -111 118 -120 -3
-5 -1 -6 5 -2 6 4 31 -13 56 -38 25 -24 47 -41 50 -38 4 3 6 -2 6 -11 0 -9 5
-19 12 -23 7 -5 8 -2 3 7 -4 8 11 -6 34 -30 22 -24 41 -41 41 -37 0 4 6 1 14
-6 8 -7 12 -16 9 -20 -2 -5 1 -8 8 -8 6 0 19 -8 28 -18 9 -9 34 -33 56 -52 22
-18 39 -38 38 -42 -3 -7 12 -10 33 -7 4 0 10 -4 13 -10 4 -6 23 -12 44 -15 20
-2 42 -8 49 -12 7 -4 10 -4 6 1 -4 4 7 15 25 24 17 9 31 21 30 26 -1 6 4 16
10 23 8 10 7 16 -4 23 -12 7 -12 9 1 9 13 0 13 1 0 10 -12 8 -12 10 -1 10 11
0 11 3 1 15 -7 9 -8 15 -2 15 12 0 11 18 -2 39 -6 10 -5 12 2 7 7 -4 12 -2 12
3 0 6 -6 11 -12 11 -9 0 -9 3 -3 8 14 9 14 45 0 54 -6 5 -5 8 4 8 11 0 11 3 1
15 -7 8 -8 15 -3 15 5 0 9 9 10 20 1 11 -4 20 -10 20 -8 0 -8 3 1 9 8 4 14 12
14 16 0 4 -6 12 -14 16 -7 5 -8 9 -3 9 14 0 14 43 1 52 -7 5 -6 8 2 8 7 0 10
5 7 10 -3 6 -1 10 4 10 6 0 10 5 9 11 -2 7 12 18 30 25 19 8 32 10 32 4 0 -5
7 -10 15 -10 8 0 15 -4 15 -10 0 -5 5 -10 11 -10 6 0 38 -28 72 -62 33 -35 64
-62 69 -61 4 2 8 -3 8 -10 0 -6 18 -25 40 -40 22 -16 40 -36 40 -44 0 -9 2
-14 5 -11 6 5 44 -28 152 -129 25 -24 51 -43 57 -43 6 0 4 -5 -4 -10 -12 -8
-11 -10 8 -10 13 0 22 -6 22 -15 0 -8 9 -15 19 -15 11 0 22 -4 25 -9 4 -5 14
-8 24 -6 9 1 23 -3 31 -9 8 -6 12 -6 9 -1 -4 7 60 10 185 10 141 0 199 3 220
13 15 7 27 16 27 18 0 3 -6 2 -12 -1 -7 -4 -6 -1 3 7 9 7 15 20 14 29 -3 19
-46 65 -57 61 -5 -1 -8 2 -8 8 0 14 -147 160 -154 153 -3 -4 -6 1 -6 10 0 9
-13 24 -30 34 -16 9 -30 20 -30 24 0 11 -79 89 -90 89 -6 0 -10 6 -10 14 0 7
-8 20 -17 27 -14 12 -16 12 -8 0 5 -10 4 -12 -3 -7 -7 4 -12 11 -12 16 0 11
-59 70 -71 70 -5 0 -9 7 -9 16 0 8 -4 12 -10 9 -5 -3 -10 -1 -10 5 0 6 -4 8
-10 5 -6 -3 -7 1 -4 9 4 11 0 16 -11 16 -9 0 -13 5 -10 10 3 6 1 10 -5 10 -15
0 -60 46 -53 54 4 3 1 6 -6 6 -16 0 -41 25 -41 41 0 7 -3 10 -6 6 -8 -7 -34
17 -34 32 0 6 -3 10 -7 10 -17 -3 -33 1 -32 9 3 17 -1 35 -7 29 -9 -8 -33 16
-26 27 3 5 0 6 -7 2 -7 -5 -20 1 -31 14 -10 12 -21 21 -24 21 -3 -1 -8 0 -11
0 -20 5 -32 4 -49 -4 -13 -6 -16 -6 -12 2 5 7 1 9 -8 5 -9 -3 -16 -10 -16 -16
0 -5 -4 -7 -8 -4 -5 3 -20 -5 -33 -17 -13 -12 -27 -21 -32 -19 -5 1 -7 -1 -4
-5 5 -10 -110 -123 -117 -115 -4 3 -6 -2 -6 -12 0 -9 -4 -14 -10 -11 -5 3 -10
2 -10 -3 0 -11 -70 -86 -70 -75 0 4 -4 4 -8 -2 -13 -18 -51 -35 -57 -25 -3 5
-12 7 -20 4 -8 -3 -33 13 -59 39 -25 24 -48 42 -51 39 -3 -3 -5 2 -5 12 0 9
-4 15 -8 12 -5 -3 -15 6 -22 19 -7 14 -19 25 -26 25 -7 0 -16 9 -19 21 -4 11
-9 19 -11 16 -2 -2 -29 21 -59 51 -30 31 -55 52 -55 48 0 -5 -7 -3 -15 4 -18
15 -75 22 -75 9z"/>
<path d="M1596 1387 c3 -10 9 -15 12 -12 3 3 0 11 -7 18 -10 9 -11 8 -5 -6z"/>
<path d="M31 851 c-18 -11 -24 -61 -8 -61 7 0 6 -4 -3 -10 -13 -8 -13 -10 0
-10 11 0 11 -3 2 -12 -9 -9 -9 -15 1 -27 9 -12 9 -13 0 -7 -7 4 -13 2 -13 -3
0 -6 5 -11 11 -11 8 0 7 -5 -2 -16 -10 -13 -10 -17 2 -25 12 -7 12 -9 -1 -9
-12 0 -12 -2 -1 -9 9 -6 10 -11 2 -15 -6 -4 -11 -12 -11 -17 0 -6 5 -7 11 -3
7 4 7 -1 -1 -15 -8 -16 -8 -26 -1 -35 7 -9 7 -16 0 -23 -6 -6 -8 -21 -4 -33 5
-17 10 -19 21 -9 11 9 14 9 14 0 0 -7 5 -9 10 -6 6 4 8 10 5 15 -3 4 1 11 7
13 10 4 9 6 -1 6 -11 1 -11 4 0 18 10 11 10 14 1 9 -6 -4 -12 -3 -12 3 0 5 5
13 11 17 8 4 7 9 -2 15 -12 8 -11 11 1 19 12 8 12 10 1 10 -10 0 -11 3 -2 14
9 11 9 15 -1 19 -10 4 -10 8 2 16 13 10 13 11 0 11 -13 0 -13 1 0 10 9 6 11
13 5 18 -13 10 -17 52 -5 52 6 0 20 -12 33 -27 12 -15 32 -37 44 -50 13 -13
23 -27 23 -31 0 -4 6 -7 14 -7 12 0 87 88 83 97 -1 1 0 2 2 1 2 -2 10 5 16 14
11 15 12 14 11 -8 -1 -13 3 -30 8 -38 8 -11 8 -13 -1 -8 -8 5 -11 0 -10 -13 1
-11 4 -20 7 -20 4 0 7 -7 7 -15 0 -8 -4 -12 -9 -9 -10 7 -10 1 1 -29 5 -13 6
-30 1 -37 -5 -7 -4 -24 1 -37 6 -16 5 -22 -1 -18 -6 3 -10 2 -10 -3 0 -11 24
-22 46 -22 8 0 11 6 7 17 -5 12 -3 14 8 8 12 -8 12 -6 0 8 -9 12 -10 17 -2 17
7 0 9 5 5 12 -10 15 -11 168 -2 168 4 0 3 12 -3 27 -7 20 -6 28 3 35 10 6 10
8 -2 8 -12 0 -12 2 -2 9 11 7 11 11 -2 23 -8 9 -13 18 -10 20 3 3 -7 3 -21 0
-14 -2 -23 -7 -21 -10 3 -3 -3 -12 -13 -21 -9 -9 -26 -28 -35 -43 -10 -15 -22
-25 -27 -22 -5 3 -9 2 -8 -3 3 -19 -2 -34 -10 -29 -5 4 -11 0 -14 -6 -5 -15
-57 39 -57 60 0 6 -7 12 -16 12 -8 0 -13 4 -10 8 3 5 -4 15 -15 22 -10 8 -19
21 -19 30 0 12 -2 12 -9 1 -5 -8 -10 -9 -12 -2 -3 6 -9 7 -18 2z"/>
<path d="M1624 841 c-10 -24 -10 -271 0 -271 5 0 4 -6 -1 -12 -5 -7 -8 -19 -7
-25 1 -7 2 -21 4 -30 1 -12 3 -14 7 -5 4 10 8 10 19 1 11 -9 14 -8 14 2 0 11
2 11 10 -1 7 -11 12 -12 21 -3 8 8 19 9 36 2 17 -6 22 -6 17 2 -4 8 0 8 15 0
16 -9 21 -9 21 1 0 9 3 9 11 -2 8 -11 12 -12 16 -2 2 6 8 10 12 8 4 -3 7 4 7
14 0 10 -4 16 -8 14 -4 -3 -8 -1 -8 4 0 13 -33 10 -42 -3 -5 -6 -8 -5 -8 4 0
11 -3 11 -15 1 -11 -9 -15 -9 -15 -1 0 8 -6 9 -18 2 -26 -14 -47 8 -48 51 -1
21 2 35 6 33 5 -3 6 3 3 14 -3 10 0 22 6 25 6 4 11 2 11 -5 0 -9 3 -9 14 0 9
7 17 8 20 2 7 -11 25 -9 45 3 10 6 12 5 7 -2 -10 -17 -2 -15 21 6 23 20 20 51
-3 31 -11 -9 -14 -9 -14 0 0 7 -5 9 -12 4 -20 -12 -37 -12 -44 -1 -4 6 -10 5
-15 -3 -6 -10 -9 -10 -9 -2 0 7 -6 10 -14 7 -8 -3 -17 0 -22 7 -5 8 -3 10 7 4
12 -7 12 -6 0 9 -13 15 -13 19 0 27 8 5 9 9 3 9 -6 0 -10 10 -9 23 2 20 7 22
69 23 75 2 94 12 77 41 -6 10 -11 13 -11 5 0 -7 -5 -10 -11 -7 -17 11 -59 13
-59 3 0 -5 -10 -4 -21 3 -17 9 -20 8 -14 -2 5 -8 4 -10 -4 -5 -24 15 -60 13
-67 -3z"/>
<path d="M827 757 c3 -5 0 -8 -8 -5 -8 3 -19 -5 -25 -16 -6 -12 -16 -20 -23
-18 -7 1 -9 -2 -5 -9 3 -6 0 -16 -7 -21 -10 -7 -7 -7 9 -3 14 4 22 2 23 -7 5
-58 3 -95 -6 -107 -8 -12 -7 -13 4 -6 11 6 13 4 8 -8 -3 -10 -2 -17 4 -17 6 0
8 -4 5 -9 -10 -16 31 -42 63 -39 18 1 35 6 37 10 3 5 10 6 15 2 12 -7 7 19 -5
28 -6 4 -18 3 -27 -2 -12 -7 -21 -5 -29 5 -7 8 -17 12 -24 8 -6 -4 -5 1 3 10
11 14 11 17 0 17 -11 0 -11 2 1 10 11 7 11 10 2 10 -8 0 -10 5 -5 13 10 16 11
57 1 51 -4 -3 -8 0 -8 5 0 6 5 11 11 11 5 0 7 5 3 11 -5 8 1 10 20 7 14 -3 29
-1 32 4 3 4 10 6 15 3 11 -8 11 6 0 24 -5 8 -16 11 -25 8 -9 -4 -16 -2 -16 2
0 5 -10 7 -22 4 -13 -3 -19 -1 -13 4 15 13 15 30 0 30 -8 0 -11 -5 -8 -10z"/>
<path d="M2488 749 c-10 -5 -18 -17 -18 -25 0 -8 -4 -12 -10 -9 -5 3 -10 -3
-10 -14 0 -12 5 -20 12 -18 7 1 12 -13 12 -38 0 -22 5 -43 11 -47 6 -5 6 -8
-2 -8 -6 0 -10 -6 -9 -12 9 -51 19 -75 29 -76 7 0 23 -3 36 -6 14 -3 31 0 40
7 12 10 13 9 7 -1 -7 -11 -4 -11 12 -1 11 7 18 18 15 26 -3 7 -9 10 -14 7 -6
-3 -17 0 -26 8 -11 8 -14 8 -10 1 5 -8 0 -11 -12 -10 -11 1 -18 3 -16 5 2 3
-3 11 -11 19 -8 8 -11 20 -7 26 9 15 9 49 0 64 -13 21 4 45 30 40 13 -2 26 0
29 5 3 4 10 6 15 3 5 -4 9 3 9 14 0 11 -5 23 -12 27 -7 4 -8 3 -4 -5 6 -9 0
-10 -21 -5 -37 9 -44 14 -38 25 8 12 -15 11 -37 -2z"/>
<path d="M565 740 c-3 -6 -11 -8 -16 -5 -5 4 -9 1 -9 -4 0 -6 -3 -10 -7 -8 -5
1 -18 -8 -30 -20 -13 -13 -20 -23 -17 -23 4 0 2 -6 -3 -12 -6 -7 -9 -23 -8
-35 1 -13 -2 -23 -7 -23 -5 0 -6 -5 -3 -10 4 -6 12 -7 18 -4 9 5 9 4 0 -6 -9
-10 -9 -17 0 -33 21 -36 40 -56 49 -51 4 3 8 1 8 -3 0 -12 71 -11 89 1 9 6 12
5 8 -2 -5 -7 0 -7 16 1 13 6 24 17 24 24 0 6 -5 9 -10 6 -6 -4 -8 0 -4 9 5 14
3 15 -21 2 -20 -10 -28 -11 -34 -1 -6 9 -8 9 -8 0 0 -7 -11 -12 -25 -11 -13 1
-22 4 -19 7 2 2 -8 13 -23 23 -17 10 -22 18 -13 18 13 0 13 1 0 10 -12 8 -12
10 3 16 9 3 24 4 32 0 10 -3 15 1 15 12 0 15 2 15 10 2 9 -13 11 -13 20 0 8
13 10 12 11 -5 0 -11 3 -14 6 -8 3 9 10 10 23 3 14 -7 23 -6 35 6 15 15 15 18
-1 35 -11 12 -13 19 -5 19 8 0 7 5 -3 16 -9 8 -16 20 -16 25 0 5 -12 12 -27
15 -16 4 -33 11 -40 16 -7 5 -14 5 -18 -2z m38 -49 c10 -1 21 -9 24 -18 4 -10
11 -21 16 -24 5 -4 -23 -7 -63 -6 -58 0 -69 3 -56 12 9 7 16 19 16 27 0 9 8
14 23 12 12 -1 30 -3 40 -3z"/>
<path d="M1342 729 c-40 -17 -83 -49 -66 -49 3 0 1 -7 -6 -15 -7 -8 -9 -15 -5
-15 4 0 2 -7 -5 -15 -10 -12 -10 -15 1 -15 10 0 10 -3 2 -11 -12 -12 3 -59 19
-59 4 0 8 -7 8 -15 0 -8 11 -17 25 -21 14 -3 25 -10 25 -14 0 -4 20 -7 45 -6
25 0 45 5 45 9 0 5 4 6 9 3 5 -3 12 1 15 10 3 8 11 12 16 9 6 -4 9 -1 8 7 -2
7 2 12 7 11 6 -1 11 6 12 15 0 9 3 34 6 55 4 24 2 37 -5 37 -6 0 -8 3 -5 6 11
12 -13 43 -46 61 -18 9 -34 17 -37 18 -3 0 -9 3 -15 6 -5 4 -29 -2 -53 -12z
m57 -35 c6 4 11 2 11 -4 0 -6 5 -8 10 -5 6 3 10 1 10 -5 0 -6 5 -8 12 -4 8 5
9 2 5 -9 -3 -10 -2 -17 4 -17 6 0 7 -4 4 -10 -3 -5 -1 -10 4 -10 15 0 9 -22
-9 -38 -8 -8 -9 -11 -2 -7 20 10 14 -2 -14 -30 -21 -21 -29 -24 -35 -13 -7 10
-9 10 -9 0 0 -7 -4 -11 -9 -8 -5 4 -12 0 -14 -6 -3 -8 -6 -6 -6 5 -1 10 -5 16
-10 12 -5 -3 -12 -1 -16 5 -4 6 -10 8 -14 6 -4 -3 -8 0 -9 7 -1 7 -3 23 -6 37
-2 14 2 31 8 39 8 11 8 13 -1 7 -21 -12 -15 5 9 25 11 11 27 19 35 19 7 0 13
6 13 13 0 9 3 8 9 -2 5 -7 14 -10 20 -7z"/>
<path d="M2287 744 c-3 -4 -19 -8 -33 -10 -24 -2 -53 -31 -45 -43 1 -2 -3 -8
-11 -12 -10 -7 -10 -9 0 -9 7 0 10 -4 7 -10 -3 -5 -1 -10 5 -10 7 0 9 -7 6
-16 -3 -8 -2 -12 4 -9 6 3 10 1 10 -5 0 -6 5 -8 10 -5 6 3 10 1 10 -5 0 -6 5
-8 10 -5 6 3 10 1 10 -4 0 -6 7 -11 15 -11 8 0 15 -3 16 -7 0 -5 2 -18 5 -30
4 -22 -10 -30 -41 -23 -5 1 -18 2 -27 3 -10 1 -18 5 -18 10 0 5 -7 4 -15 -3
-14 -12 -14 -15 0 -30 33 -37 153 -7 149 38 -1 6 -2 22 -3 34 0 12 -4 19 -7
15 -3 -3 -17 5 -31 19 -13 13 -29 22 -34 19 -5 -4 -9 1 -9 9 0 8 -5 18 -12 22
-7 5 -8 3 -3 -6 5 -8 4 -11 -2 -7 -6 4 -8 19 -5 34 3 16 7 22 10 14 3 -9 6
-10 11 -2 6 8 15 7 37 -4 36 -19 41 -19 41 0 0 8 -4 15 -9 15 -5 0 -6 6 -2 13
4 6 3 9 -1 4 -5 -4 -16 0 -25 8 -9 8 -19 12 -23 9z"/>
<path d="M1031 730 c-17 -10 -23 -108 -8 -127 6 -8 6 -13 0 -13 -6 0 -10 -22
-9 -49 1 -29 5 -46 10 -41 5 5 15 6 22 3 10 -4 13 3 10 26 -2 17 1 28 5 25 5
-3 9 -1 9 5 0 5 -5 13 -10 16 -6 4 -7 12 -3 18 12 20 12 37 0 37 -7 0 -6 4 2
9 8 5 14 24 13 42 -1 38 -21 62 -41 49z"/>
<path d="M1104 733 c3 -3 -2 -12 -10 -20 -8 -8 -11 -19 -8 -24 3 -6 12 -2 21
8 8 10 12 12 8 6 -4 -8 0 -13 9 -13 8 0 20 -2 28 -5 7 -3 19 4 26 16 8 12 9
18 4 15 -6 -3 -12 -1 -14 5 -2 6 -18 12 -36 14 -18 1 -31 0 -28 -2z"/>
<path d="M1945 731 c-4 -3 -12 -6 -18 -6 -5 0 -11 -10 -12 -22 -2 -24 13 -26
33 -3 8 8 11 10 8 4 -3 -6 1 -11 9 -11 8 0 12 4 9 8 -8 13 32 6 45 -8 6 -7 9
-13 6 -13 -3 0 -1 -10 6 -22 10 -18 9 -20 -5 -15 -10 4 -16 1 -16 -8 0 -9 -8
-12 -20 -10 -11 2 -18 0 -15 -6 5 -8 -9 -13 -18 -6 -8 5 -37 -26 -32 -34 3 -4
-3 -12 -12 -18 -11 -6 -13 -11 -5 -11 7 0 10 -5 7 -10 -10 -16 25 -44 56 -46
16 -1 29 1 29 5 0 4 9 7 20 8 11 1 18 -2 15 -7 -3 -5 10 -8 29 -7 33 2 43 20
19 35 -14 9 -14 62 1 62 7 0 7 3 -1 8 -7 4 -12 23 -12 42 -1 50 -5 80 -10 75
-2 -3 -10 0 -17 6 -15 12 -89 20 -99 10z m84 -136 c5 2 6 -8 4 -23 -2 -15 -5
-33 -5 -40 -1 -7 -6 -11 -12 -9 -6 3 -19 0 -30 -5 -13 -7 -16 -7 -12 1 4 6 0
11 -8 11 -31 0 -11 45 29 68 12 6 21 7 23 1 2 -5 7 -7 11 -4z"/>
</g>
</svg>
